<?xml version="1.0" standalone="no"?>
<!DOCTYPE svg PUBLIC "-//W3C//DTD SVG 20010904//EN"
 "http://www.w3.org/TR/2001/REC-SVG-20010904/DTD/svg10.dtd">
<svg version="1.0" xmlns="http://www.w3.org/2000/svg"
 width="1024.000000pt" height="1024.000000pt" viewBox="0 0 1024.000000 1024.000000"
 preserveAspectRatio="xMidYMid meet">

<g transform="translate(0.000000,1024.000000) scale(0.100000,-0.100000)"
fill="#000000" stroke="none">
<path d="M0 5120 l0 -5120 5120 0 5120 0 0 5120 0 5120 -5120 0 -5120 0 0
-5120z m6180 2510 c389 -13 579 -47 779 -141 372 -174 610 -500 685 -937 34
-196 38 -304 43 -1197 8 -1494 -9 -1713 -156 -2030 -163 -349 -481 -590 -891
-674 -215 -44 -275 -46 -1520 -46 -1293 0 -1331 1 -1575 60 -252 60 -455 173
-621 346 -211 221 -320 495 -356 899 -9 108 -13 420 -13 1215 0 1092 4 1205
40 1417 105 605 501 985 1115 1068 47 7 180 15 295 19 314 11 1848 12 2175 1z"/>
<path d="M3959 7169 c-312 -17 -519 -87 -667 -224 -168 -156 -245 -339 -272
-645 -13 -154 -13 -2229 0 -2375 18 -194 45 -297 114 -430 58 -113 190 -245
301 -302 239 -122 375 -132 1700 -132 1151 0 1364 10 1553 77 117 41 186 86
282 182 123 123 182 232 220 408 37 170 42 355 37 1512 -5 1215 -4 1192 -67
1383 -87 260 -273 433 -539 502 -181 47 -211 48 -1396 50 -616 2 -1186 -1
-1266 -6z m2708 -432 c100 -51 161 -158 150 -263 -24 -234 -308 -331 -466
-159 -53 58 -73 107 -74 180 -1 125 75 224 203 266 44 15 133 3 187 -24z
m-1257 -292 c397 -88 727 -337 909 -684 105 -201 154 -404 154 -636 0 -166
-20 -288 -69 -435 -71 -213 -159 -355 -319 -516 -198 -199 -408 -313 -686
-376 -88 -19 -132 -23 -284 -23 -152 0 -196 4 -285 23 -266 60 -476 175 -666
366 -61 61 -134 145 -161 186 -108 161 -186 354 -218 537 -20 115 -20 351 0
466 32 183 111 378 218 537 67 98 216 252 316 323 161 117 371 206 561 241
113 20 422 15 530 -9z"/>
<path d="M5015 6010 c-369 -40 -668 -302 -766 -671 -32 -117 -31 -318 0 -434
57 -214 196 -407 378 -528 282 -187 665 -195 962 -20 80 47 209 167 266 247
246 348 216 812 -74 1128 -103 113 -259 208 -403 248 -65 18 -238 42 -278 38
-8 0 -46 -4 -85 -8z"/>
</g>
</svg>
